<svg width="280" height="114" viewBox="0 0 280 114" fill="none" xmlns="http://www.w3.org/2000/svg">
<path d="M52.7266 77.8457L70.793 92.1523L64.4453 98.0117L46.6719 83.9004L52.7266 77.8457ZM70.5488 48.207V52.6992C70.5488 58.0378 69.8815 62.8229 68.5469 67.0547C67.2122 71.2865 65.2917 74.8835 62.7852 77.8457C60.2786 80.8079 57.2676 83.0703 53.752 84.6328C50.2689 86.1953 46.3626 86.9766 42.0332 86.9766C37.834 86.9766 33.9766 86.1953 30.4609 84.6328C26.9779 83.0703 23.9505 80.8079 21.3789 77.8457C18.8398 74.8835 16.8704 71.2865 15.4707 67.0547C14.071 62.8229 13.3711 58.0378 13.3711 52.6992V48.207C13.3711 42.8685 14.0547 38.0996 15.4219 33.9004C16.8216 29.6686 18.791 26.0716 21.3301 23.1094C23.8691 20.1146 26.8802 17.8359 30.3633 16.2734C33.8789 14.7109 37.7363 13.9297 41.9355 13.9297C46.265 13.9297 50.1875 14.7109 53.7031 16.2734C57.2188 17.8359 60.2298 20.1146 62.7363 23.1094C65.2428 26.0716 67.1634 29.6686 68.498 33.9004C69.8652 38.0996 70.5488 42.8685 70.5488 48.207ZM61.2227 52.6992V48.1094C61.2227 43.8776 60.7832 40.1341 59.9043 36.8789C59.0579 33.6237 57.8047 30.8893 56.1445 28.6758C54.4844 26.4622 52.4661 24.7858 50.0898 23.6465C47.7135 22.5072 44.9954 21.9375 41.9355 21.9375C39.0384 21.9375 36.4017 22.5072 34.0254 23.6465C31.6816 24.7858 29.6634 26.4622 27.9707 28.6758C26.278 30.8893 24.9759 33.6237 24.0645 36.8789C23.153 40.1341 22.6973 43.8776 22.6973 48.1094V52.6992C22.6973 56.9635 23.153 60.7396 24.0645 64.0273C24.9759 67.2826 26.278 70.0332 27.9707 72.2793C29.696 74.4928 31.7467 76.1693 34.123 77.3086C36.4993 78.4479 39.1361 79.0176 42.0332 79.0176C45.0931 79.0176 47.8112 78.4479 50.1875 77.3086C52.5638 76.1693 54.5658 74.4928 56.1934 72.2793C57.8535 70.0332 59.1068 67.2826 59.9531 64.0273C60.7995 60.7396 61.2227 56.9635 61.2227 52.6992ZM116.057 73.793V33.168H125.139V86H116.496L116.057 73.793ZM117.766 62.6602L121.525 62.5625C121.525 66.0781 121.151 69.3333 120.402 72.3281C119.686 75.2904 118.514 77.862 116.887 80.043C115.259 82.224 113.127 83.9329 110.49 85.1699C107.854 86.3743 104.647 86.9766 100.871 86.9766C98.2995 86.9766 95.9395 86.6022 93.791 85.8535C91.6751 85.1048 89.8522 83.9492 88.3223 82.3867C86.7923 80.8242 85.6042 78.7897 84.7578 76.2832C83.944 73.7767 83.5371 70.7656 83.5371 67.25V33.168H92.5703V67.3477C92.5703 69.724 92.8307 71.6934 93.3516 73.2559C93.9049 74.7858 94.6374 76.0065 95.5488 76.918C96.4928 77.7969 97.5345 78.4154 98.6738 78.7734C99.8457 79.1315 101.05 79.3105 102.287 79.3105C106.128 79.3105 109.172 78.5781 111.418 77.1133C113.664 75.6159 115.275 73.6139 116.252 71.1074C117.261 68.5684 117.766 65.7526 117.766 62.6602ZM148.723 33.168V86H139.641V33.168H148.723ZM138.957 19.1543C138.957 17.6895 139.396 16.4525 140.275 15.4434C141.187 14.4342 142.521 13.9297 144.279 13.9297C146.005 13.9297 147.323 14.4342 148.234 15.4434C149.178 16.4525 149.65 17.6895 149.65 19.1543C149.65 20.554 149.178 21.7585 148.234 22.7676C147.323 23.7441 146.005 24.2324 144.279 24.2324C142.521 24.2324 141.187 23.7441 140.275 22.7676C139.396 21.7585 138.957 20.554 138.957 19.1543ZM202.58 78.5781V86H164.152V78.5781H202.58ZM201.164 39.5645L166.203 86H160.686V79.3594L195.402 33.168H201.164V39.5645ZM197.16 33.168V40.6387H161.076V33.168H197.16ZM256.486 44.7891V55.6289C256.486 61.4557 255.965 66.3711 254.924 70.375C253.882 74.3789 252.385 77.6016 250.432 80.043C248.479 82.4844 246.118 84.2585 243.352 85.3652C240.617 86.4395 237.525 86.9766 234.074 86.9766C231.34 86.9766 228.817 86.6348 226.506 85.9512C224.195 85.2676 222.111 84.1771 220.256 82.6797C218.433 81.1497 216.87 79.1641 215.568 76.7227C214.266 74.2812 213.273 71.319 212.59 67.8359C211.906 64.3529 211.564 60.2839 211.564 55.6289V44.7891C211.564 38.9622 212.085 34.0794 213.127 30.1406C214.201 26.2018 215.715 23.0443 217.668 20.668C219.621 18.2591 221.965 16.5339 224.699 15.4922C227.466 14.4505 230.559 13.9297 233.977 13.9297C236.743 13.9297 239.283 14.2715 241.594 14.9551C243.938 15.6061 246.021 16.6641 247.844 18.1289C249.667 19.5612 251.213 21.4818 252.482 23.8906C253.785 26.2669 254.777 29.1803 255.461 32.6309C256.145 36.0814 256.486 40.1341 256.486 44.7891ZM247.404 57.0938V43.2754C247.404 40.0853 247.209 37.2858 246.818 34.877C246.46 32.4355 245.923 30.3522 245.207 28.627C244.491 26.9017 243.579 25.502 242.473 24.4277C241.398 23.3535 240.145 22.5723 238.713 22.084C237.313 21.5632 235.734 21.3027 233.977 21.3027C231.828 21.3027 229.924 21.7096 228.264 22.5234C226.604 23.3047 225.204 24.5579 224.064 26.2832C222.958 28.0085 222.111 30.2708 221.525 33.0703C220.939 35.8698 220.646 39.2715 220.646 43.2754V57.0938C220.646 60.2839 220.826 63.0996 221.184 65.541C221.574 67.9824 222.144 70.0983 222.893 71.8887C223.641 73.6465 224.553 75.0951 225.627 76.2344C226.701 77.3737 227.938 78.2201 229.338 78.7734C230.77 79.2943 232.349 79.5547 234.074 79.5547C236.288 79.5547 238.225 79.1315 239.885 78.2852C241.545 77.4388 242.928 76.1204 244.035 74.3301C245.174 72.5072 246.021 70.1797 246.574 67.3477C247.128 64.4831 247.404 61.0651 247.404 57.0938Z" fill="white"/>
<path d="M0 0H45L40.6864 1.17627C21.5588 6.39212 6.51558 21.1723 0.963097 40.2048L0 43.5061V0Z" fill="white"/>
<path d="M263.216 35L280.009 50.9679L262.794 67.3368L270.384 51.3797L263.216 35Z" fill="white"/>
</svg>
